PathFileType	4	(X/Y/Z)	/Users/mathieubourgeois/Desktop/Analyse/Traitement/Sujet_08/Data/Transformed_Sujet_08_velo_80.trc
DataRate	CameraRate	NumFrames	NumMarkers	Units	OrigDataRate	OrigDataStartFrame	OrigNumFrames
120.000000	120.000000	5	35	mm	120.000000	939	1878
Frame#	Time	RFHD			RANE			STRN			LANI			LKNE			T10			RHUM			RWRB			C7			LFWT			LTOE			RTOE			LWRA			LBWT			RBWT			RFWT			LKNI			RKNE			LANE			LHEE			LHUM			LRAD			RRAD			RWRA			LWRB			LFHD			LBHD			RBHD			RSHO			LSHO			CLAV			LCAR			RCAR			RANI			RKNI			
		X1	Y1	Z1	X2	Y2	Z2	X3	Y3	Z3	X4	Y4	Z4	X5	Y5	Z5	X6	Y6	Z6	X7	Y7	Z7	X8	Y8	Z8	X9	Y9	Z9	X10	Y10	Z10	X11	Y11	Z11	X12	Y12	Z12	X13	Y13	Z13	X14	Y14	Z14	X15	Y15	Z15	X16	Y16	Z16	X17	Y17	Z17	X18	Y18	Z18	X19	Y19	Z19	X20	Y20	Z20	X21	Y21	Z21	X22	Y22	Z22	X23	Y23	Z23	X24	Y24	Z24	X25	Y25	Z25	X26	Y26	Z26	X27	Y27	Z27	X28	Y28	Z28	X29	Y29	Z29	X30	Y30	Z30	X31	Y31	Z31	X32	Y32	Z32	X33	Y33	Z33	X34	Y34	Z34	X35	Y35	Z35	

940	7.825	220.0590667724609	1509.062133789062	77.76251983642571	-46.13074874877932	434.78173828125	178.0098724365234	-55.09214019775391	1157.443481445312	14.78258132934562	-289.7507629394531	436.0421447753906	-74.41132354736334	-34.35739135742185	753.2355346679688	-156.3174133300782	-206.6575622558594	1353.728759765625	13.17914009094227	142.0930480957031	1072.935546875	203.7827453613281	335.6710205078124	909.9031982421875	253.177261352539	10.02023696899414	1427.625244140625	19.53994369506827	-266.46875	1094.566528320312	-108.4878311157228	-203.9630584716797	271.0874328613281	-123.3866806030274	135.7823638916015	376.5163269042969	134.988525390625	362.783935546875	938.318115234375	-174.9413604736328	-407.5399169921875	1149.762329101562	-39.86792755126965	-401.5080261230469	1150.235473632812	92.40319824218739	-247.8238983154297	1092.180053710938	121.0598754882812	-72.27310180664062	697.087158203125	-52.79646682739263	12.00881481170652	836.9151611328125	177.3717346191406	-326.899658203125	446.8419189453125	-152.4701080322266	-374.1141357421875	451.3685607910156	-108.3107528686524	135.1166229248047	1076.736450195312	-179.712387084961	187.3460388183594	1107.8759765625	-232.1091766357422	181.1551513671875	1096.486572265625	251.2911682128906	360.0204772949219	930.3043823242188	186.0860595703125	327.9115905761719	896.562255859375	-227.6266021728516	221.1439056396484	1519.795654296875	-49.74406433105475	65.85733795166017	1528.41015625	-61.06288146972665	54.33209991455077	1533.436889648438	75.61943817138662	60.13902664184569	1358.008544921875	142.5531005859374	58.08568191528322	1365.203979492188	-122.6604080200196	56.68891143798828	1294.497924804688	13.29809379577629	426.4779052734376	916.9237670898438	-256.2106018066406	437.3071289062499	910.9905395507812	275.0612182617188	-28.20588874816896	448.8689880371094	101.9096374511718	38.72429656982421	773.2471313476562	73.67523956298824	
941	7.833333333333333	219.9044799804688	1509.334106445312	76.55699157714837	-44.99476623535158	420.7071533203125	177.494155883789	-55.12996673583984	1157.4501953125	14.16712665557854	-288.9770812988281	449.1704711914062	-73.35107421875006	-28.50750923156737	761.2212524414062	-156.2233123779297	-206.6605834960938	1353.742309570312	13.1366090774535	142.3113708496093	1072.860229492188	203.3753509521484	335.7852478027343	909.853759765625	253.1099548339843	10.01900672912597	1427.635864257812	18.72285079956046	-266.7521057128906	1094.929077148438	-107.8540267944337	-205.7543029785156	283.0559997558594	-123.2771072387696	138.2368469238281	362.6884155273438	135.2634429931641	362.7470397949219	938.3563232421875	-175.0190277099609	-407.72998046875	1149.93994140625	-38.98699188232434	-401.1385192871094	1150.021728515625	93.36016082763661	-246.5003967285157	1091.5849609375	121.6480331420897	-63.85720062255859	705.2219848632812	-52.62148666381841	6.589015483856179	824.47021484375	178.5899658203124	-326.1496276855469	460.5813598632812	-152.1716461181641	-373.1619262695312	465.776611328125	-107.8048934936524	134.97265625	1076.47509765625	-180.173583984375	187.0704650878907	1107.575073242188	-232.7170562744141	181.3502960205078	1096.4990234375	250.8589782714843	360.1549377441406	930.1597900390625	186.0459289550781	327.9739685058594	896.4722290039062	-227.6597290039063	220.8950958251953	1519.959594726562	-50.92154312133795	65.56506347656251	1528.403930664062	-62.1371612548829	54.15527343749999	1533.533813476562	74.55257415771474	60.41038131713866	1357.977661132812	141.7687072753905	57.80979156494142	1364.935546875	-123.680892944336	56.67048645019531	1294.50390625	12.36979675292961	426.5650634765626	916.851806640625	-256.1723937988281	437.3797912597656	910.9966430664062	275.1074829101562	-26.63416671752931	435.1335754394531	100.2846527099609	33.6872444152832	762.1721801757812	75.05631256103511	
942	7.841666666666667	219.8540191650391	1509.68701171875	75.3334655761718	-44.71591949462893	406.8045043945312	176.8773193359375	-54.96440124511719	1157.53515625	13.60128688812248	-287.7583312988281	462.1979675292969	-71.49148559570318	-22.68138313293455	769.6537475585938	-156.0184326171876	-206.5574951171875	1353.7607421875	13.11349868774403	142.6090698242187	1072.895263671875	203.0217895507812	335.8965454101562	909.82861328125	253.0978851318359	10.10472011566162	1427.726196289062	17.77414512634268	-266.9374389648438	1095.21533203125	-107.2157516479493	-206.5536346435547	295.1656188964844	-123.1528778076172	139.80810546875	348.4661865234375	135.4259948730469	362.7415771484375	938.3851928710938	-175.0391082763672	-407.771728515625	1150.168212890625	-37.98888778686536	-400.6358032226562	1149.918579101562	94.38942718505848	-245.223876953125	1091.065795898438	122.3756408691405	-61.21069335937499	713.7830200195312	-52.9707756042481	0.6918416023254175	812.045166015625	179.6876831054687	-324.35400390625	474.2660217285156	-151.4742889404297	-371.6898498535156	480.1630859375	-107.3617477416993	134.8302612304688	1076.27978515625	-180.6563720703125	186.5692291259766	1107.277221679688	-233.6490783691407	181.6543273925781	1096.615234375	250.4207000732422	360.3312072753906	930.0055541992188	186.0482635498047	328.0556335449219	896.3657836914062	-227.61962890625	220.6750793457031	1520.211791992188	-52.14015197753913	65.3445281982422	1528.491333007812	-63.20349884033212	54.01726913452148	1533.66259765625	73.43613433837881	60.82089233398436	1357.982299804688	140.8886260986327	57.56674194335939	1364.712890625	-124.8041763305665	56.79347610473633	1294.6123046875	11.49021339416497	426.6779785156251	916.7442626953125	-256.0599975585938	437.4873962402343	910.9688720703125	275.1918029785156	-25.75140380859376	421.5894165039062	98.68382263183591	28.13219833374022	750.1692504882812	75.91912841796871	
943	7.85	219.8188323974609	1510.077758789062	74.06949615478509	-45.33559036254885	393.1611633300781	176.1549224853515	-54.60229110717773	1157.666625976562	12.88382911682121	-285.3188781738281	474.9264526367188	-70.61254119873053	-16.63125991821287	778.3760375976562	-155.9002227783204	-206.3382110595703	1353.795288085938	13.11815643310536	143.0070190429687	1072.872924804688	202.6187286376953	336.0265197753906	909.812744140625	253.133804321289	10.23620986938476	1427.881713867188	16.86289596557608	-267.02001953125	1095.577514648438	-106.5896072387696	-206.2301788330078	307.4769592285156	-123.0438385009766	140.2881469726562	334.1726379394531	135.6213531494141	362.7491760253906	938.4056396484375	-175.0343475341797	-407.744140625	1150.421020507812	-36.99015808105481	-399.9992980957031	1149.85498046875	95.48536682128895	-243.9140167236328	1090.56787109375	123.1611175537108	-55.31367111206054	722.722900390625	-52.70658111572271	-5.741028785705589	799.7664794921875	180.7058410644531	-321.7982482910156	487.8269958496094	-150.8566589355469	-369.3197631835938	494.2763977050781	-106.5857543945313	134.7496185302735	1076.11181640625	-181.0419921875	186.7290496826172	1106.9150390625	-233.8324737548828	182.0545349121093	1096.805786132812	249.9966430664062	360.4955749511719	929.8472900390625	186.0966186523438	328.1622619628906	896.2706298828125	-227.5701904296875	220.5675964355469	1520.583984375	-53.38938522338874	65.20094299316408	1528.641723632812	-64.37366485595712	53.99456405639648	1533.842407226562	72.32411956787099	61.34399414062499	1358.111694335938	139.9289093017577	57.40138626098634	1364.58203125	-125.9162521362306	57.010009765625	1294.8095703125	10.43630504608147	426.8018188476563	916.6402587890625	-255.9191284179688	437.5877685546874	910.9097290039062	275.3216552734375	-25.73702239990235	408.3151245117188	97.20102691650388	22.06034469604491	738.2770385742188	76.66944885253902	
944	7.858333333333333	219.917236328125	1510.522827148438	72.78189086914055	-46.89516448974612	379.8644104003906	175.3225402832031	-54.2891731262207	1157.792358398438	12.23855209350578	-282.7640686035156	488.2171020507812	-69.33789062500006	-11.44598579406736	787.734130859375	-155.2482147216797	-206.0373840332031	1353.843017578125	13.16840648651112	143.4481964111328	1073.101928710938	202.3083343505859	336.1507568359374	909.7952270507812	253.1999969482422	10.43712997436523	1428.096923828125	15.86678409576407	-267.1470031738281	1095.916748046875	-105.7984542846681	-204.8559875488281	319.9045104980469	-122.9613265991211	139.6233978271484	320.0042419433594	135.7676696777344	362.8135070800781	938.4366455078125	-174.9983215332031	-407.5729370117188	1150.71923828125	-35.89704895019543	-399.282470703125	1149.849487304688	96.64177703857411	-242.5548095703125	1090.156616210938	123.9587860107421	-49.37980651855468	731.7210693359375	-52.20264816284185	-12.48937511444094	787.7861938476562	182.1443634033203	-318.7203063964844	501.20947265625	-150.0688781738282	-366.2976684570312	508.0175476074219	-105.769874572754	134.7297058105469	1075.987915039062	-181.3793029785157	186.614974975586	1106.669799804688	-234.3491516113282	182.5779266357422	1097.084716796875	249.6268768310547	360.6732482910156	929.7015380859375	186.1761474609375	328.2738647460938	896.1995239257812	-227.45849609375	220.4986877441406	1521.010375976562	-54.76040649414069	65.10426330566408	1528.883178710938	-65.49362182617196	54.01541900634765	1534.07763671875	71.20658874511709	61.92184829711913	1358.307250976562	138.9069824218749	57.28097152709962	1364.479125976562	-127.0960388183595	57.29952621459961	1295.033325195312	9.500681877136158	426.9643859863282	916.5152587890625	-255.7013702392578	437.6969299316406	910.8385009765625	275.47216796875	-26.79134750366212	395.3987121582031	95.99668884277341	16.86558723449706	726.530517578125	77.87483215332027	
